<?xml version="1.0" encoding="utf-8" standalone="yes"?>
<!DOCTYPE svg PUBLIC "-//W3C//DTD SVG 1.1//EN" "http://www.w3.org/Graphics/SVG/1.1/DTD/svg11.dtd">
<svg width="828" height="409" viewBox="0 0 828 409" style="fill:none;stroke:none;fill-rule:evenodd;clip-rule:evenodd;stroke-linecap:round;stroke-linejoin:round;stroke-miterlimit:1.5;" version="1.1" xmlns="http://www.w3.org/2000/svg" xmlns:xlink="http://www.w3.org/1999/xlink"><style class="text-font-style fontImports" data-font-family="Roboto">@import url('https://fonts.googleapis.com/css2?family=Roboto:wght@400;700&amp;display=block');</style><g id="items" style="isolation: isolate"><g id="blend" style="mix-blend-mode: normal"><g id="g-root-5.cu_sy_1qbz72fv4x88z-fill" data-item-order="-71449" transform="translate(463.24951171875, 241.755859375)"><g id="5.cu_sy_1qbz72fv4x88z-fill" stroke="none" fill="#e55753"><g><path d="M 21.3646 112.332C 20.3601 99.7068 16.3302 87.9343 10 77.7392L 103.3361 10C 123.34 39.3254 135.429 74.4805 136.529 112.391L 21.3646 112.332Z"></path></g></g></g><g id="g-root-4.cu_sy_145i5jbv4x7gs-fill" data-item-order="-71445" transform="translate(427, 169)"><g id="4.cu_sy_145i5jbv4x7gs-fill" stroke="none" fill="#de8431"><g><path d="M 39.4485 141.169C 31.5362 131.856 21.4613 124.437 10 119.689L 45.5779 10C 80.4046 22.4662 110.58 44.7084 132.798 73.42L 39.4485 141.169Z"></path></g></g></g><g id="g-root-3.cu_sy_1ut1nd3v4x9mt-fill" data-item-order="-71441" transform="translate(343.9873046875, 158)"><g id="3.cu_sy_1ut1nd3v4x9mt-fill" stroke="none" fill="#e0cb15"><g><path d="M 82.0987 127.265C 76.1178 125.785 69.8631 125 63.425 125C 57.2918 125 51.3251 125.712 45.6029 127.059L 10 17.6761C 27.1074 12.6796 45.2033 10 63.925 10C 82.578 10 100.6097 12.6599 117.662 17.6212L 82.0987 127.265Z"></path></g></g></g><g id="g-root-2.cu_sy_18mkltzv4x8um-fill" data-item-order="-71437" transform="translate(245.9755859375, 169.24609375)"><g id="2.cu_sy_18mkltzv4x8um-fill" stroke="none" fill="#92bd39"><g><path d="M 132.608 119.293C 120.996 123.949 110.773 131.333 102.7324 140.654L 10 73.3525C 32.1782 44.6923 62.2858 22.4785 97.034 10L 132.608 119.293Z"></path></g></g></g><g id="g-root-1.cu_sy_i0a26fv4x8un-fill" data-item-order="-71433" transform="translate(206, 241.935546875)"><g id="1.cu_sy_i0a26fv4x8un-fill" stroke="none" fill="#3cc583"><g><path d="M 135.837 77.2402C 129.34 87.5284 125.197 99.4516 124.165 112.253L 10 112.195C 11.1361 74.3591 23.2184 39.2747 43.1883 10L 135.837 77.2402Z"></path></g></g></g><g id="g-root-trai_9mirrv4x820-fill" data-item-order="-5184" transform="translate(362, 296)"><g id="trai_9mirrv4x820-fill" stroke="none" fill="#969696"><g><path d="M 38.349998 10.75C 34.372936 10.749131 31.148428 13.972936 31.148428 17.950001C 31.148428 21.927065 34.372936 25.150869 38.349998 25.150002C 42.325836 25.149132 45.548428 21.925837 45.548428 17.950001C 45.548428 13.974164 42.325836 10.750868 38.349998 10.75ZM 17.950001 22.450001C 13.972936 22.449131 10.748427 25.672935 10.748427 29.650002C 10.748427 33.627064 13.972936 36.850868 17.950001 36.849998C 21.925837 36.849133 25.148428 33.625835 25.148428 29.650002C 25.148428 25.674164 21.925837 22.450869 17.950001 22.450001ZM 58.75 22.450001C 54.772938 22.449131 51.548428 25.672935 51.548428 29.650002C 51.548428 33.627064 54.772938 36.850868 58.75 36.849998C 62.725838 36.849133 65.948433 33.625835 65.948433 29.650002C 65.948433 25.674164 62.725838 22.450869 58.75 22.450001ZM 41.920002 34.714001C 40.119999 32.464001 36.579998 32.464001 34.779999 34.714001L 34.75 34.75L 23.049999 50.349998L 23.028999 50.380001C 22.021812 51.746422 21.869255 53.563339 22.634483 55.078583C 23.399712 56.593822 24.952492 57.549507 26.650002 57.550003L 36.34 57.550003C 36.860714 56.328873 37.832024 55.355412 39.052002 54.831997L 52.546001 48.876999L 41.949997 34.75L 41.920002 34.714001ZM 47.244999 68.053001L 56.965 72.343002C 59.489494 73.45591 62.367302 73.447182 64.885002 72.319L 74.245003 68.127998L 74.245003 75.235001C 74.244476 75.831535 74.00708 76.40345 73.584999 76.825005L 71.995003 75.235001L 73.584999 76.824997L 73.584999 76.827995L 73.582001 76.831001L 73.575996 76.836998L 73.555 76.858002L 73.495003 76.915001C 73.204926 77.186234 72.904709 77.446419 72.595001 77.694992C 72.000999 78.175003 71.137001 78.805 70.044998 79.434998C 67.873001 80.686005 64.708 81.985001 60.895 81.985001C 57.091 81.985001 53.860001 80.692001 51.628002 79.449997C 50.434761 78.786301 49.305889 78.012962 48.256004 77.139999C 48.186264 77.080856 48.11726 77.020851 48.049004 76.960007L 47.988998 76.905998L 47.971001 76.888L 47.962002 76.882004L 47.962002 76.878998C 47.962002 76.878998 47.956001 76.878998 49.494999 75.235001L 47.956001 76.875999C 47.502453 76.450729 47.245094 75.856743 47.244999 75.235001L 47.244999 68.050003ZM 40.563999 58.264C 40.020142 58.503803 39.669182 59.042122 39.669182 59.636497C 39.669182 60.230881 40.020142 60.769196 40.563999 61.009003L 58.48 68.910995C 60.033035 69.595245 61.803204 69.58979 63.352001 68.895996L 77.391998 62.611L 77.391998 67.977997C 77.391998 69.220642 78.399361 70.227997 79.641998 70.227997C 80.884644 70.227997 81.891998 69.220642 81.891998 67.977997L 81.891998 60.388C 81.893089 60.226753 81.876999 60.065842 81.844002 59.907997C 81.97261 59.226639 81.614532 58.546555 80.979996 58.266998L 63.352001 50.374001C 61.803204 49.680206 60.033035 49.674755 58.48 50.359001L 40.563999 58.264Z"></path></g></g></g><g id="g-root-inte_v4vfrbv4nf2a-fill" data-item-order="-2304" transform="translate(374, 188)"><g id="inte_v4vfrbv4nf2a-fill" stroke="none" fill="#484848"><g><path d="M 31.76 52L 12.18 52L 12.18 58L 30.48 58C 30.49103 55.933422 30.926712 53.891163 31.76 52ZM 39.260002 44.220001C 37.206562 42.798851 35.680691 40.738575 34.919998 38.360001L 15.68 38.360001C 14.855414 38.362434 14.116848 38.870697 13.82 39.639999L 10.2 48C 10.039868 48.335663 10.056798 48.72892 10.245185 49.04958C 10.433572 49.370235 10.768843 49.576469 11.14 49.599998L 33.139999 49.599998C 34.656166 47.286415 36.771179 45.427139 39.260002 44.220001ZM 35.459999 30C 33.49247 28.289309 30.967131 27.357422 28.360001 27.380001C 23.485113 27.393873 19.223845 30.671772 17.959999 35.379997L 34.379997 35.379997C 34.295773 33.525421 34.66655 31.678392 35.459999 30ZM 29.860001 32.700001C 29.860001 33.528427 29.188427 34.200001 28.360001 34.200001C 27.531574 34.200001 26.860001 33.528427 26.860001 32.700001L 26.860001 30.700001C 26.860001 29.871574 27.531574 29.200001 28.360001 29.200001C 29.188427 29.200001 29.860001 29.871574 29.860001 30.700001ZM 45.700001 26.32C 40.952972 26.331041 37.112656 30.186268 37.12001 34.933304C 37.127369 39.680344 40.979614 43.523647 45.726654 43.519978C 50.473694 43.516304 54.319992 39.667046 54.320004 34.920002C 54.308971 30.167118 50.452892 26.319986 45.700001 26.32ZM 45.700001 40.52C 42.611759 40.509029 40.11097 38.00824 40.099998 34.919998C 40.09803 33.773071 40.454666 32.654224 41.120003 31.720001C 43.585995 34.69173 47.258522 36.395782 51.119999 36.360001C 50.466526 38.815842 48.241295 40.523769 45.700001 40.52ZM 45.700001 45.799999C 38.958885 45.799992 33.491035 51.258892 33.48 58L 58 58C 58.000107 54.746956 56.701038 51.62859 54.391418 49.337746C 52.081802 47.046906 48.95293 45.773335 45.700001 45.799999ZM 47.200001 52C 47.200001 52.82843 46.528427 53.5 45.700001 53.5C 44.871574 53.5 44.200001 52.82843 44.200001 52L 44.200001 49.619999C 44.200001 48.791573 44.871574 48.120003 45.700001 48.120003C 46.528427 48.120003 47.200001 48.791573 47.200001 49.620003ZM 28.360001 10C 24.063225 10 20.58 13.483225 20.58 17.780001C 20.58 22.076775 24.063225 25.560001 28.360001 25.560001C 32.656776 25.560001 36.139999 22.076775 36.139999 17.780001C 36.139999 13.483225 32.656776 10 28.360001 10ZM 28.360001 22.560001C 26.635422 22.529518 25.059795 21.576069 24.232689 20.062466C 23.405584 18.548862 23.454185 16.707855 24.360001 15.24C 26.520937 17.744213 29.652554 19.200779 32.959999 19.24C 32.314625 21.231308 30.453226 22.574751 28.360001 22.560001Z"></path></g></g></g><g id="g-root-1_959j0nv5730h-fill" data-item-order="-2304" transform="translate(290, 212)"><g id="1_959j0nv5730h-fill" stroke="none" fill="#484848"><g><path d="M 32.704002 10.476C 33.451096 9.840374 34.548904 9.840374 35.295998 10.476L 43 17.026001L 43 15C 43 13.895431 43.895432 13 45 13L 50 13C 51.104568 13 52 13.895431 52 15L 52 24.675999L 55.296001 27.476C 56.13768 28.191761 56.239761 29.454317 55.523998 30.296C 54.808239 31.137682 53.545681 31.239761 52.703999 30.524L 34 14.624001L 15.296 30.524C 14.454318 31.239761 13.191761 31.137682 12.476 30.296C 11.760239 29.454317 11.862318 28.191761 12.704 27.476L 32.704002 10.476ZM 25.57 25.619999L 25.59 25.591999C 27.760239 22.221981 31.732485 20.472713 35.683723 21.147007C 39.634964 21.821302 42.802254 24.788956 43.731998 28.688L 43.734001 28.702C 44.229927 30.808069 44.03138 33.018051 43.167999 35.001999L 38.472 35.001999C 39.262375 34.120476 39.773285 33.02417 39.940002 31.851999C 35.883621 32.709248 31.652948 31.977648 28.120001 29.808001C 27.747581 31.664377 28.269005 33.587868 29.528 35.001999L 24.832001 35.001999C 24.281406 33.740433 23.998121 32.378483 24 31.002001C 24 29.021999 24.576 27.174 25.57 25.622ZM 10 56C 10 54.895432 10.895431 54 12 54L 20.666 54L 18.776001 42.658001C 18.582554 41.498055 18.90933 40.311749 19.669455 39.414467C 20.429581 38.517189 21.546032 37.999855 22.722 38L 45.278 38C 46.453968 37.999855 47.570419 38.517189 48.330544 39.414467C 49.090672 40.311749 49.417446 41.498055 49.223999 42.658001L 47.334 54L 56 54C 57.104568 54 58 54.895432 58 56C 58 57.104568 57.104568 58 56 58L 12 58C 10.895431 58 10 57.104568 10 56ZM 38 48C 38 50.209141 36.209137 52 34 52C 31.790861 52 30 50.209141 30 48C 30 45.790859 31.790861 44 34 44C 36.209137 44 38 45.790859 38 48Z"></path></g></g></g><g id="g-root-2_1upxd3bv4os1v-fill" data-item-order="-2304" transform="translate(458, 212)"><g id="2_1upxd3bv4os1v-fill" stroke="none" fill="#484848"><g><path d="M 43 12L 43 15.860001L 35.146 10.36C 34.457764 9.878815 33.542236 9.878815 32.854 10.36L 12.854 24.360001C 11.948158 24.992884 11.726927 26.24029 12.359879 27.146086C 12.99283 28.05188 14.240252 28.273018 15.146 27.639999L 34 14.440001L 52.854 27.639999C 53.759747 28.272818 55.006992 28.051615 55.639877 27.145914C 56.272762 26.240215 56.051651 24.992952 55.146 24.360001L 52 22.16L 52 12C 52 10.895431 51.104568 10 50 10L 45 10C 43.895432 10 43 10.895431 43 12ZM 21 44C 24.313709 44 27 41.313709 27 38C 27 34.686295 24.313709 32 21 32C 17.686291 32 15 34.686295 15 38C 15 41.313709 17.686291 44 21 44ZM 26 54C 24.895432 54 24 54.895432 24 56C 24 57.104568 24.895432 58 26 58L 51.529999 58C 52.404564 57.999504 53.17738 57.430828 53.438 56.596001L 57.188 44.596001C 57.37751 43.988956 57.267033 43.327972 56.890415 42.815552C 56.513798 42.303131 55.915936 42.000359 55.279999 42L 39.470001 42C 38.595436 42.000496 37.82262 42.569172 37.562 43.403999L 34.25 54L 26 54ZM 10 57C 9.999689 52.129852 13.201838 47.839222 17.870766 46.453785C 22.539696 45.068344 27.563866 46.917931 30.220001 51L 26 51C 24.31316 50.999519 22.739788 51.849609 21.815666 53.260792C 20.891544 54.671974 20.741264 56.453987 21.416 58L 11 58C 10.447715 58 10 57.552284 10 57ZM 49 49.5C 49 50.880711 47.880711 52 46.5 52C 45.119289 52 44 50.880711 44 49.5C 44 48.119289 45.119289 47 46.5 47C 47.880711 47 49 48.119289 49 49.5Z"></path></g></g></g><g id="g-root-user_1hduah3v55nuw-fill" data-item-order="-2304" transform="translate(242, 284)"><g id="user_1hduah3v55nuw-fill" stroke="none" fill="#484848"><g><path d="M 56 16C 56 19.313709 53.313709 22 50 22C 46.686295 22 44 19.313709 44 16C 44 12.686292 46.686295 10 50 10C 53.313709 10 56 12.686292 56 16ZM 13 14C 13 12.895431 13.895431 12 15 12L 23 12C 24.104568 12 25 12.895431 25 14C 25 15.104569 24.104568 16 23 16L 15 16C 13.895431 16 13 15.104569 13 14ZM 15 19C 13.895431 19 13 19.895432 13 21C 13 22.104568 13.895431 23 15 23L 23 23C 24.104568 23 25 22.104568 25 21C 25 19.895432 24.104568 19 23 19L 15 19ZM 13 28C 13 26.89543 13.895431 26 15 26L 23 26C 24.104568 26 25 26.89543 25 28C 25 29.10457 24.104568 30 23 30L 15 30C 13.895431 30 13 29.10457 13 28ZM 30 37L 39 37C 39.91256 37.000687 40.709862 36.383583 40.938 35.5L 41.577999 35.5C 43.280304 35.500168 44.961414 35.122414 46.5 34.394001L 46.5 54.5C 46.5 56.432999 48.067005 58.000004 50 58.000004C 51.932999 58.000004 53.5 56.432999 53.5 54.500004L 53.5 28C 53.49958 26.709734 52.78931 25.524343 51.651768 24.915424C 50.514229 24.306503 49.133923 24.372826 48.060001 25.088001L 44.074001 27.743999C 43.334866 28.236855 42.466385 28.499903 41.578003 28.5L 39.987999 28.5L 41.442001 23.411999C 41.601547 22.892948 41.468105 22.328199 41.093121 21.935448C 40.718132 21.542694 40.160164 21.383274 39.634285 21.518639C 39.10841 21.654001 38.696754 22.063009 38.557999 22.588001L 36.868 28.5L 36 28.5C 34.894348 28.499401 33.853424 29.021273 33.192429 29.907589C 32.531433 30.793905 32.328102 31.940435 32.644001 33L 15 33C 13.895431 33 13 33.895432 13 35L 13 56C 13 57.104568 13.895431 58 15 58L 33 58C 34.104568 58 35 57.104568 35 56C 35 54.895432 34.104568 54 33 54L 30 54L 30 37Z"></path></g></g></g><g id="g-root-1_1cwrxc7v4szk4-fill" data-item-order="-2304" transform="translate(506, 284)"><g id="1_1cwrxc7v4szk4-fill" stroke="none" fill="#484848"><g><path d="M 26.5 10L 11.5 10C 10.671573 10 10 10.671573 10 11.5L 10 25.5L 16.633999 25.5C 16.927999 23.369999 17.702 21.368 19.001999 19.714001C 20.702 17.549999 23.208 16.105999 26.356001 15.726C 26.408422 15.709154 26.457253 15.682705 26.5 15.648001L 26.5 10ZM 10 29.5L 10 37.5C 10 38.327999 10.672 39 11.5 39L 16.493999 39L 16.493999 29.5L 10 29.5ZM 20.493999 39L 20.493999 27.66C 20.497995 27.60676 20.499996 27.553391 20.5 27.5C 20.5 25.362 21.1 23.52 22.147999 22.186001C 23.174 20.878 24.728001 19.931999 26.92 19.686001C 26.977654 19.680496 27.035042 19.672489 27.092001 19.661999C 28.812 19.318001 30.5 17.858 30.5 15.7L 30.5 10L 37.5 10L 37.5 15.7C 37.5 17.858 39.190002 19.318001 40.908001 19.66C 40.964001 19.672001 41.021999 19.68 41.080002 19.688C 43.271999 19.931999 44.826 20.878 45.852001 22.186001C 46.889999 23.506001 47.486 25.32 47.5 27.426001L 47.5 27.5L 47.5 39L 41 39L 41 28.5C 41 26.299999 39.200001 24.5 37 24.5L 31 24.5C 28.799999 24.5 27 26.299999 27 28.5L 27 39L 20.493999 39ZM 51.498001 39L 56.5 39C 57.32843 39 58 38.32843 58 37.5L 58 29.5L 51.5 29.5L 51.5 39ZM 58 25.5L 58 11.5C 58 10.671573 57.32843 10 56.5 10L 41.5 10L 41.5 15.648C 41.542694 15.682782 41.591541 15.70924 41.643997 15.726C 44.792 16.105999 47.296001 17.549999 48.998001 19.714001C 50.298 21.368 51.071999 23.369999 51.366001 25.5L 58 25.5ZM 15.82 51.306C 18.134401 51.306465 20.010841 49.430401 20.010841 47.116001C 20.010841 44.801598 18.134401 42.925537 15.82 42.925999C 13.506255 42.926464 11.63084 44.802254 11.63084 47.116001C 11.63084 49.429745 13.506255 51.305534 15.82 51.306ZM 38.190002 47.116001C 38.190464 49.430401 36.3144 51.306839 34 51.306839C 31.685598 51.306839 29.809536 49.430401 29.809999 47.116001C 29.810465 44.802254 31.686255 42.926842 34 42.926842C 36.313744 42.926842 38.189537 44.802254 38.190002 47.116001ZM 52.18 51.306C 54.4944 51.306465 56.370842 49.430401 56.370842 47.116001C 56.370842 44.801598 54.4944 42.925537 52.18 42.925999C 49.866257 42.926464 47.990841 44.802254 47.990841 47.116001C 47.990841 49.429745 49.866257 51.305534 52.18 51.306ZM 15.82 52.18C 12.559999 52.18 10 54.740002 10 58L 21.639999 58C 21.639999 54.740002 19.08 52.18 15.82 52.18ZM 28.18 58C 28.18 54.740002 30.74 52.18 34 52.18C 37.260002 52.18 39.82 54.740002 39.82 58L 28.18 58ZM 52.18 52.18C 48.919998 52.18 46.360001 54.740002 46.360001 58L 58 58C 58 54.740002 55.439999 52.18 52.18 52.18Z"></path></g></g></g><g id="g-root-tx_schooled_4gpgufv4ynm4-fill" data-item-order="0" transform="translate(314.076171875, 32)"><g id="tx_schooled_4gpgufv4ynm4-fill" stroke="none" fill="#46432d"><g><text style="font: bold 20px Roboto, sans-serif; white-space: pre;" font-weight="bold" font-size="20px" font-family="Roboto, sans-serif"><tspan x="16" y="34" dominant-baseline="ideographic">School Education</tspan></text></g></g></g><g id="g-root-tx_provides_4lp9jbv4x9mv-fill" data-item-order="0" transform="translate(320, 68)"><g id="tx_provides_4lp9jbv4x9mv-fill" stroke="none" fill="#46432d"><g><text style="font: 15px Roboto, sans-serif; white-space: pre;" font-size="15px" font-family="Roboto, sans-serif"><tspan x="29.81" y="31" dominant-baseline="ideographic">Provides a strong </tspan><tspan x="17.34" y="49" dominant-baseline="ideographic">academic foundation </tspan><tspan x="12.59" y="67" dominant-baseline="ideographic">with tailored guidance.</tspan></text></g></g></g><g id="g-root-tx_distance_v300hzv4ynm3-fill" data-item-order="0" transform="translate(578, 56)"><g id="tx_distance_v300hzv4ynm3-fill" stroke="none" fill="#4c4034"><g><text style="font: bold 20px Roboto, sans-serif; white-space: pre;" font-weight="bold" font-size="20px" font-family="Roboto, sans-serif"><tspan x="18.77" y="34" dominant-baseline="ideographic">Distance </tspan><tspan x="13.39" y="58" dominant-baseline="ideographic">Education</tspan></text></g></g></g><g id="g-root-tx_onlineed_v4vfrbv4ymmd-fill" data-item-order="0" transform="translate(92, 80)"><g id="tx_onlineed_v4vfrbv4ymmd-fill" stroke="none" fill="#424736"><g><text style="font: bold 20px Roboto, sans-serif; white-space: pre;" font-weight="bold" font-size="20px" font-family="Roboto, sans-serif"><tspan x="12.11" y="34" dominant-baseline="ideographic">Online Education</tspan></text></g></g></g><g id="g-root-tx_offersfl_hz175zv4x728-fill" data-item-order="0" transform="translate(86, 116)"><g id="tx_offersfl_hz175zv4x728-fill" stroke="none" fill="#424736"><g><text style="font: 15px Roboto, sans-serif; white-space: pre;" font-size="15px" font-family="Roboto, sans-serif"><tspan x="17.2" y="31" dominant-baseline="ideographic">Offers flexible learning </tspan><tspan x="37.4" y="49" dominant-baseline="ideographic">for students and </tspan><tspan x="44.93" y="67" dominant-baseline="ideographic">professionals.</tspan></text></g></g></g><g id="g-root-tx_allowsfl_18jgbk7v4x81y-fill" data-item-order="0" transform="translate(548, 116)"><g id="tx_allowsfl_18jgbk7v4x81y-fill" stroke="none" fill="#4c4034"><g><text style="font: 15px Roboto, sans-serif; white-space: pre;" font-size="15px" font-family="Roboto, sans-serif"><tspan x="23.96" y="31" dominant-baseline="ideographic">Allows flexibility to </tspan><tspan x="15.46" y="49" dominant-baseline="ideographic">balance work and life </tspan><tspan x="37.49" y="67" dominant-baseline="ideographic">commitments.</tspan></text></g></g></g><g id="g-root-tx_skilldev_1uo1xtzv4yn7y-fill" data-item-order="0" transform="translate(14, 236)"><g id="tx_skilldev_1uo1xtzv4yn7y-fill" stroke="none" fill="#374840"><g><text style="font: bold 20px Roboto, sans-serif; white-space: pre;" font-weight="bold" font-size="20px" font-family="Roboto, sans-serif"><tspan x="12.87" y="34" dominant-baseline="ideographic">Skill Development</tspan></text></g></g></g><g id="g-root-tx_regularp_1uux5s7v4x88y-fill" data-item-order="0" transform="translate(620, 236)"><g id="tx_regularp_1uux5s7v4x88y-fill" stroke="none" fill="#543a3a"><g><text style="font: bold 20px Roboto, sans-serif; white-space: pre;" font-weight="bold" font-size="20px" font-family="Roboto, sans-serif"><tspan x="11.91" y="34" dominant-baseline="ideographic">Regular Program</tspan></text></g></g></g><g id="g-root-tx_focuseso_1d2e747v4x8g1-fill" data-item-order="0" transform="translate(14, 272)"><g id="tx_focuseso_1d2e747v4x8g1-fill" stroke="none" fill="#374840"><g><text style="font: 15px Roboto, sans-serif; white-space: pre;" font-size="15px" font-family="Roboto, sans-serif"><tspan x="23.93" y="31" dominant-baseline="ideographic">Focuses on practical </tspan><tspan x="12.59" y="49" dominant-baseline="ideographic">skills and competencies </tspan><tspan x="18.35" y="67" dominant-baseline="ideographic">for the current market.</tspan></text></g></g></g><g id="g-root-tx_encourag_dg3blzv4x6o5-fill" data-item-order="0" transform="translate(614, 271.607421875)"><g id="tx_encourag_dg3blzv4x6o5-fill" stroke="none" fill="#543a3a"><g><text style="font: 15px Roboto, sans-serif; white-space: pre;" font-size="15px" font-family="Roboto, sans-serif"><tspan x="15.5" y="31" dominant-baseline="ideographic">Encourages interaction </tspan><tspan x="26.41" y="49" dominant-baseline="ideographic">and collaboration in </tspan><tspan x="27.36" y="67" dominant-baseline="ideographic">structured learning.</tspan></text></g></g></g><g id="g-root-5.cu_sy_1qbz72fv4x88z-stroke" data-item-order="-71449" transform="translate(463.24951171875, 241.755859375)"><g id="5.cu_sy_1qbz72fv4x88z-stroke" fill="none" stroke-linecap="round" stroke-linejoin="round" stroke-miterlimit="4" stroke="#ffffff" stroke-width="2"><g><path d="M 21.3646 112.3316C 20.3601 99.7068 16.3302 87.9343 10 77.7392L 103.3361 10C 123.3401 39.3254 135.4294 74.4805 136.5293 112.3908L 21.3646 112.3316Z"></path></g></g></g><g id="g-root-4.cu_sy_145i5jbv4x7gs-stroke" data-item-order="-71445" transform="translate(427, 169)"><g id="4.cu_sy_145i5jbv4x7gs-stroke" fill="none" stroke-linecap="round" stroke-linejoin="round" stroke-miterlimit="4" stroke="#ffffff" stroke-width="2"><g><path d="M 39.4485 141.1687C 31.5362 131.8557 21.4613 124.4372 10 119.6894L 45.5779 10C 80.4046 22.4662 110.58 44.7084 132.7976 73.42L 39.4485 141.1687Z"></path></g></g></g><g id="g-root-3.cu_sy_1ut1nd3v4x9mt-stroke" data-item-order="-71441" transform="translate(343.9873046875, 158)"><g id="3.cu_sy_1ut1nd3v4x9mt-stroke" fill="none" stroke-linecap="round" stroke-linejoin="round" stroke-miterlimit="4" stroke="#ffffff" stroke-width="2"><g><path d="M 82.0987 127.2646C 76.1178 125.785 69.8631 125 63.425 125C 57.2918 125 51.3251 125.7124 45.6029 127.0591L 10 17.6761C 27.1074 12.6796 45.2033 10 63.925 10C 82.578 10 100.6097 12.6599 117.6616 17.6212L 82.0987 127.2646Z"></path></g></g></g><g id="g-root-2.cu_sy_18mkltzv4x8um-stroke" data-item-order="-71437" transform="translate(245.9755859375, 169.24609375)"><g id="2.cu_sy_18mkltzv4x8um-stroke" fill="none" stroke-linecap="round" stroke-linejoin="round" stroke-miterlimit="4" stroke="#ffffff" stroke-width="2"><g><path d="M 132.6076 119.2926C 120.9962 123.9486 110.7733 131.3334 102.7324 140.6537L 10 73.3525C 32.1782 44.6923 62.2858 22.4785 97.034 10L 132.6076 119.2926Z"></path></g></g></g><g id="g-root-1.cu_sy_i0a26fv4x8un-stroke" data-item-order="-71433" transform="translate(206, 241.935546875)"><g id="1.cu_sy_i0a26fv4x8un-stroke" fill="none" stroke-linecap="round" stroke-linejoin="round" stroke-miterlimit="4" stroke="#ffffff" stroke-width="2"><g><path d="M 135.8367 77.2402C 129.3397 87.5284 125.197 99.4516 124.1653 112.2533L 10 112.1946C 11.1361 74.3591 23.2184 39.2747 43.1883 10L 135.8367 77.2402Z"></path></g></g></g><g id="g-root-trai_9mirrv4x820-stroke" data-item-order="-5184" transform="translate(362, 296)"></g><g id="g-root-inte_v4vfrbv4nf2a-stroke" data-item-order="-2304" transform="translate(374, 188)"></g><g id="g-root-1_959j0nv5730h-stroke" data-item-order="-2304" transform="translate(290, 212)"></g><g id="g-root-2_1upxd3bv4os1v-stroke" data-item-order="-2304" transform="translate(458, 212)"></g><g id="g-root-user_1hduah3v55nuw-stroke" data-item-order="-2304" transform="translate(242, 284)"></g><g id="g-root-1_1cwrxc7v4szk4-stroke" data-item-order="-2304" transform="translate(506, 284)"></g><g id="g-root-tx_schooled_4gpgufv4ynm4-stroke" data-item-order="0" transform="translate(314.076171875, 32)"></g><g id="g-root-tx_provides_4lp9jbv4x9mv-stroke" data-item-order="0" transform="translate(320, 68)"></g><g id="g-root-tx_distance_v300hzv4ynm3-stroke" data-item-order="0" transform="translate(578, 56)"></g><g id="g-root-tx_onlineed_v4vfrbv4ymmd-stroke" data-item-order="0" transform="translate(92, 80)"></g><g id="g-root-tx_offersfl_hz175zv4x728-stroke" data-item-order="0" transform="translate(86, 116)"></g><g id="g-root-tx_allowsfl_18jgbk7v4x81y-stroke" data-item-order="0" transform="translate(548, 116)"></g><g id="g-root-tx_skilldev_1uo1xtzv4yn7y-stroke" data-item-order="0" transform="translate(14, 236)"></g><g id="g-root-tx_regularp_1uux5s7v4x88y-stroke" data-item-order="0" transform="translate(620, 236)"></g><g id="g-root-tx_focuseso_1d2e747v4x8g1-stroke" data-item-order="0" transform="translate(14, 272)"></g><g id="g-root-tx_encourag_dg3blzv4x6o5-stroke" data-item-order="0" transform="translate(614, 271.607421875)"></g></g></g></svg>