<?xml version="1.0" encoding="utf-8" standalone="yes"?>
<!DOCTYPE svg PUBLIC "-//W3C//DTD SVG 1.1//EN" "http://www.w3.org/Graphics/SVG/1.1/DTD/svg11.dtd">
<svg width="804" height="698" viewBox="0 0 804 698" style="fill:none;stroke:none;fill-rule:evenodd;clip-rule:evenodd;stroke-linecap:round;stroke-linejoin:round;stroke-miterlimit:1.5;" version="1.1" xmlns="http://www.w3.org/2000/svg" xmlns:xlink="http://www.w3.org/1999/xlink"><style class="text-font-style fontImports" data-font-family="Roboto">@import url('https://fonts.googleapis.com/css2?family=Roboto:wght@400;700&amp;display=block');</style><g id="items" style="isolation: isolate"><g id="blend" style="mix-blend-mode: normal"><g id="g-root-cp_0c_g-0c_1lr5tjclz28ed-fill" data-item-order="-455102" transform="translate(431.3399658203125, 131.09197998046875)"><g id="cp_0c_g-0c_1lr5tjclz28ed-fill" stroke="none" fill="#666666"><g><path d="M 53.71 19.02L 47 29.46L 46.97 29.46L 46.96 29.45L 10 20.44L 16.72 10L 53.71 19.02ZM 114.27 57.98L 107.47 68.48L 88.17 55.97L 47 29.46L 53.71 19.02L 114.27 57.98ZM 137.82 87.91L 131.1 98.35L 131.09 98.35L 107.47 68.48L 114.27 57.98L 137.8 87.88L 137.8 87.89L 137.82 87.91Z"></path></g></g></g><g id="g-root-cp_0b_g-0b_18gbs94lz26tj-fill" data-item-order="-455098" transform="translate(206.52999877929688, 492.9010009765625)"><g id="cp_0b_g-0b_18gbs94lz26tj-fill" stroke="none" fill="#666666"><g><path d="M 131.3 87.61L 62.24 115.22C 54.96 96.99 37.11 84.14 16.29 84.21C 15.48 84.21 14.68 84.23 13.88 84.28L 10 10L 47.02 18.93L 107.67 57.73L 131.3 87.61Z"></path></g></g></g><g id="g-root-cp_0a_g-0a_v4v9vslz28eh-fill" data-item-order="-455094" transform="translate(210.41000366210938, 110)"><g id="cp_0a_g-0a_v4v9vslz28eh-fill" stroke="none" fill="#666666"><g><path d="M 58.36 498.122L 12.57 516.422L 10 467.182C 10.8 467.132 11.6 467.112 12.41 467.112C 33.23 467.042 51.08 479.892 58.36 498.122ZM 358.75 108.9917L 363.7 101.2617C 370.78 90.1917 369.72 75.7817 361.09 65.8617C 338.44 39.8517 308.81 20.8817 275.71 11.2117L 275.64 11.1917C 263.02 7.5017 249.48 12.5817 242.4 23.6517L 237.65 31.0817L 274.65 40.1017L 335.2 79.0617L 358.75 108.9817L 358.75 108.9917Z"></path></g></g></g><g id="g-root-cp_1_g-1_4ikq88lz28ej-fill" data-item-order="-455090" transform="translate(206.52999877929688, 422.6910400390625)"><g id="cp_1_g-1_4ikq88lz28ej-fill" stroke="none" fill="#3cc583"><g><path d="M 176.22 87.6L 131.3 157.82L 107.67 127.94L 152.59 57.73L 176.22 87.6ZM 91.95 18.93L 47.02 89.14L 10 80.21L 54.92 10L 91.95 18.93ZM 152.59 57.73L 107.67 127.94L 47.02 89.14L 91.95 18.93L 152.59 57.73Z"></path></g></g></g><g id="g-root-cp_2_g-2_1cxe8jslz287h-fill" data-item-order="-455086" transform="translate(251.45001220703125, 352.48101806640625)"><g id="cp_2_g-2_1cxe8jslz287h-fill" stroke="none" fill="#92bd39"><g><path d="M 91.95 18.93L 47.03 89.14L 10 80.21L 54.92 10L 91.95 18.93ZM 176.22 87.6L 131.3 157.81L 107.67 127.94L 152.6 57.7299L 176.22 87.6ZM 152.6 57.7299L 107.67 127.94L 47.03 89.14L 91.95 18.93L 152.6 57.7299Z"></path></g></g></g><g id="g-root-cp_3_g-3_v6qp54lz27ev-fill" data-item-order="-455082" transform="translate(296.3699951171875, 282.261962890625)"><g id="cp_3_g-3_v6qp54lz27ev-fill" stroke="none" fill="#1eabda"><g><path d="M 91.95 18.93L 47.03 89.15L 10 80.22L 54.92 10L 54.93 10L 91.95 18.93ZM 176.22 87.61L 131.3 157.82L 107.68 127.95L 152.6 57.74L 176.22 87.61ZM 152.6 57.74L 107.68 127.95L 47.03 89.15L 91.95 18.93L 152.6 57.74Z"></path></g></g></g><g id="g-root-cp_4_g-4_dg35qglz26m9-fill" data-item-order="-455078" transform="translate(341.29998779296875, 212.052001953125)"><g id="cp_4_g-4_dg35qglz26m9-fill" stroke="none" fill="#7f64ea"><g><path d="M 176.21 87.61L 131.29 157.82L 107.67 127.95L 152.59 57.73L 176.21 87.61ZM 91.94 18.93L 47.02 89.14L 10 80.21L 54.92 10L 91.94 18.93ZM 152.59 57.73L 107.67 127.95L 47.02 89.14L 91.94 18.93L 152.59 57.73Z"></path></g></g></g><g id="g-root-cp_5_g-5_1cz9nt4lz277v-fill" data-item-order="-455074" transform="translate(386.219970703125, 141.531982421875)"><g id="cp_5_g-5_1cz9nt4lz277v-fill" stroke="none" fill="#ba5de5"><g><path d="M 176.22 87.91L 131.3 158.12L 107.67 128.25L 152.59 58.04L 176.22 87.91ZM 92.12 19.02L 47.02 89.45L 10 80.52L 55.12 10L 92.12 19.02ZM 152.59 58.04L 107.67 128.25L 47.02 89.45L 92.12 19.02L 152.59 58.04Z"></path></g></g></g><g id="g-root-ic_man_vsuglz6f46-fill" data-item-order="-1764" transform="translate(364, 324.8819580078125)"><g id="ic_man_vsuglz6f46-fill" stroke="none" fill="#484848"><g><path d="M 40.205002 36.827499C 39.644287 39.234585 37.420853 40.879925 34.955002 40.712498C 32.438953 40.928482 30.153782 39.242699 29.6175 36.775002C 28.622112 36.899178 27.634659 37.080307 26.66 37.317501L 26.66 39.3825L 31.4375 45.4725C 32.071846 46.353775 32.408978 47.414204 32.400002 48.5L 38 48.5L 42.514999 37.282501C 41.744999 37.09 41.009998 36.950001 40.205002 36.827499ZM 50.547501 40.817501C 48.810226 39.576809 46.883671 38.625351 44.842499 38L 44.842499 44.755001C 44.842499 45.528198 44.215698 46.154999 43.442501 46.154999L 42.0425 46.154999L 42.0425 48.5L 51.282501 48.5C 51.698093 48.5 52.035 48.163094 52.035 47.747498L 52.035 43.7925C 52.039162 42.621014 51.487183 41.517052 50.547497 40.817497ZM 37.895 32.855C 42.058453 31.490057 44.879253 27.611458 44.895 23.23L 44.895 20.290001C 44.87521 16.729883 42.988457 13.441349 39.924995 11.6275C 39.424423 11.318761 38.897339 11.05522 38.350002 10.84L 38.227497 10.84C 37.68515 10.643555 37.129601 10.485662 36.565002 10.3675L 36.442501 10.3675C 35.864944 10.263535 35.279335 10.21083 34.692501 10.21C 34.105667 10.21083 33.520054 10.263535 32.942501 10.3675L 32.75 10.3675C 32.154045 10.481847 31.56868 10.645749 31 10.8575C 27.09902 12.366641 24.517294 16.107367 24.490002 20.290001L 24.49 23.23C 24.499634 28.84136 29.046141 33.387867 34.657501 33.397503C 35.75922 33.396694 36.853195 33.213379 37.895 32.855ZM 27.115 23.23L 27.115 20.342499C 28.813995 20.06608 30.401999 19.320568 31.700001 18.190001C 33.737873 19.877947 36.337925 20.734215 38.980003 20.5875L 42.182499 20.5875L 42.182499 23.23C 42.316437 26.008179 40.910522 28.634604 38.524399 30.063805C 36.138271 31.493006 33.159229 31.493006 30.773102 30.063805C 28.386976 28.634604 26.981064 26.008179 27.115 23.23ZM 37.860001 24.8225C 38.712753 24.793737 39.383625 24.084204 39.364609 23.231176C 39.345596 22.378147 38.643776 21.699211 37.790585 21.708477C 36.937397 21.717741 36.250484 22.411758 36.25 23.264999C 36.244743 23.688885 36.414452 24.096191 36.719131 24.390938C 37.023815 24.685684 37.43652 24.841801 37.860001 24.8225ZM 33.205002 23.264999C 33.120705 22.473108 32.452614 21.872362 31.656248 21.872362C 30.859882 21.872362 30.191795 22.473108 30.1075 23.264999C 30.044415 23.857624 30.325041 24.43429 30.830315 24.750332C 31.335588 25.066372 31.97691 25.066372 32.482185 24.750332C 32.987457 24.43429 33.268082 23.857624 33.204998 23.264999ZM 36.25 28.690001C 36.482887 28.610384 36.7108 28.516884 36.932499 28.41C 37.327553 28.187925 37.527519 27.730858 37.422497 27.289999C 37.310776 26.849045 36.914883 26.539528 36.459999 26.5375L 33.327499 26.5375C 32.874722 26.545536 32.482044 26.852539 32.364998 27.289999C 32.266014 27.730299 32.464451 28.18387 32.855 28.41C 33.076702 28.516884 33.304611 28.610384 33.537498 28.690001C 34.422821 28.951071 35.364677 28.951071 36.25 28.690001ZM 16.282499 34.885002L 16.282499 39.994999L 11.12 46.557499C 10.332955 47.556965 10.196454 48.921974 10.77 50.057499C 11.31452 51.193108 12.468183 51.909878 13.7275 51.894997L 27.394999 51.895C 28.654318 51.909878 29.80798 51.193108 30.352499 50.057499C 30.926044 48.921974 30.789545 47.556965 30.002499 46.557499L 24.84 39.977497L 24.84 34.885002L 25.75 34.885002C 26.06587 34.856808 26.362444 34.720879 26.59 34.5C 26.845297 34.251606 26.990288 33.911186 26.9925 33.555C 26.993507 32.866261 26.455235 32.29723 25.7675 32.260002L 15.355 32.260002C 14.667266 32.29723 14.128993 32.866261 14.13 33.555C 14.12204 33.908157 14.269125 34.247093 14.5325 34.482498C 14.771916 34.727695 15.099806 34.866417 15.4425 34.8675ZM 22.215 34.885002L 22.215 40.432499C 22.216255 40.729847 22.314573 41.018646 22.494999 41.255001L 25.644999 45.244999L 15.4775 45.244999L 18.627501 41.255001C 18.807928 41.018646 18.906244 40.729847 18.907501 40.432499L 18.907501 34.885002Z"></path></g></g></g><g id="g-root-ic_lapt_1lserpklz7sw1-fill" data-item-order="-1764" transform="translate(410, 254.88201904296875)"><g id="ic_lapt_1lserpklz7sw1-fill" stroke="none" fill="#484848"><g><path d="M 42.235001 28.620001C 42.229973 28.58518 42.229973 28.549818 42.235001 28.514999C 41.447498 26.922501 38.91 25.995001 35.392502 24.699999L 34.5 24.4025C 34.237644 23.744711 34.200718 23.018511 34.395 22.337502C 35.958523 20.657909 36.734684 18.393047 36.529999 16.1075C 36.655861 14.5523 36.133278 13.014246 35.086029 11.857633C 34.03878 10.701019 32.56002 10.028729 31 10C 30.187639 10.003555 29.386381 10.188922 28.654999 10.5425C 28.541779 10.601171 28.458376 10.704663 28.425104 10.827765C 28.391834 10.950868 28.411751 11.082282 28.48 11.19C 29.450537 12.645373 29.96257 14.358244 29.950001 16.1075C 30.068638 18.335966 29.500566 20.547165 28.322498 22.442499C 28.260262 22.557095 28.260262 22.695404 28.3225 22.809999C 28.353924 22.943403 28.453899 23.050043 28.584999 23.09C 31.9275 24.35 34.360001 25.417501 35.41 27.535C 35.640045 27.989189 35.827511 28.463718 35.969997 28.952499C 36.035069 29.128929 36.201973 29.24715 36.389999 29.249998L 41.8675 29.25C 42.017963 29.247858 42.156769 29.168543 42.235001 29.040001C 42.303478 28.908373 42.303478 28.751625 42.234997 28.619999ZM 33.135002 29.25C 33.275921 29.246155 33.403473 29.165596 33.467499 29.040001C 33.535973 28.914568 33.535973 28.76293 33.467499 28.637499C 33.476929 28.591311 33.476929 28.54369 33.467499 28.497499C 32.68 26.904999 30.1425 25.977501 26.625 24.682501L 25.75 24.4025C 25.487642 23.744711 25.450718 23.018511 25.645 22.337502C 27.208523 20.657909 27.984682 18.393047 27.779999 16.1075C 27.905861 14.5523 27.383278 13.014246 26.336029 11.857633C 25.28878 10.701019 23.810019 10.028729 22.25 10C 20.694378 10.033149 19.221699 10.708055 18.180988 11.864768C 17.140278 13.021481 16.624176 14.557034 16.754999 16.1075C 16.550497 18.357225 17.306973 20.588507 18.8375 22.25C 19.037525 22.946791 19.006832 23.689587 18.75 24.367498L 17.8575 24.699999C 14.3575 25.995001 11.8025 26.922501 11.015 28.514999C 10.341319 30.134222 9.996297 31.871227 10 33.625C 10 34.10825 10.391751 34.5 10.875 34.5L 27.9725 34.5C 28.195024 34.501606 28.383303 34.335922 28.41 34.114998C 28.585768 31.557135 30.583355 29.500359 33.135002 29.25ZM 10 10M 51.807499 49.602497L 48.587498 44.352497C 48.564583 44.278397 48.564583 44.1991 48.587498 44.125L 48.587498 34.5C 48.587502 33.050255 47.412247 31.875 45.962502 31.875L 33.712502 31.875C 33.001274 31.85128 32.310894 32.117332 31.799519 32.612213C 31.288145 33.10709 30.999605 33.78838 31 34.5L 31 44.16C 31.022917 44.2341 31.022917 44.3134 31 44.387501L 27.762499 49.637501C 27.464993 50.145481 27.464993 50.774525 27.762501 51.282505C 28.107204 51.755302 28.665398 52.024548 29.25 52L 50.25 52C 50.819675 51.989395 51.348526 51.702118 51.6675 51.23C 52.01004 50.754578 52.063816 50.129444 51.807503 49.602501ZM 42.059998 49.164997C 41.987473 49.290794 41.855122 49.370205 41.709999 49.374996L 37.510002 49.375C 37.363861 49.373734 37.229889 49.29335 37.16 49.164997C 37.072117 49.038792 37.072117 48.871208 37.16 48.744999L 37.6325 47.922501C 37.699406 47.791325 37.835274 47.709808 37.982498 47.712498L 41.220001 47.712498C 41.371395 47.711143 41.511803 47.791374 41.587498 47.922497L 42.059998 48.744999C 42.131592 48.875847 42.131592 49.034153 42.059998 49.164997ZM 45 42.8125C 45 43.054123 44.804123 43.25 44.5625 43.25L 34.9375 43.25C 34.695877 43.25 34.5 43.054123 34.5 42.8125L 34.5 35.8125C 34.5 35.570877 34.695877 35.375 34.9375 35.375L 44.5625 35.375C 44.804123 35.375 45 35.570877 45 35.8125Z"></path></g></g></g><g id="g-root-ic_grad_vsuglz51qb-fill" data-item-order="-1764" transform="translate(320, 394.8819580078125)"><g id="ic_grad_vsuglz51qb-fill" stroke="none" fill="#484848"><g><path d="M 10 10M 28.7425 37.404999L 37.404999 33.695C 37.562195 33.63142 37.665737 33.479553 37.6675 33.309998C 37.675873 33.13834 37.578823 32.978905 37.422497 32.907497C 35.025993 31.803835 32.572536 30.828293 30.0725 29.985001C 29.537266 29.787519 29.181301 29.278002 29.18 28.707499L 29.18 27.9025C 29.18 27.660875 29.375875 27.465 29.6175 27.465C 31.937819 27.636103 34.254326 27.08601 36.25 25.889999C 36.422928 25.781929 36.538475 25.60219 36.565002 25.4C 36.596489 25.201609 36.531487 25.000093 36.389999 24.8575C 35.532501 23.9125 34.9375 22.775 34.639999 19.047501C 34.220001 12.3625 29.67 10 25.75 10C 21.83 10 17.279999 12.3625 16.825001 19.047501C 16.5625 22.775 15.9675 24 15.110001 24.8575C 14.968514 25.000093 14.90351 25.201609 14.934999 25.4C 14.961524 25.60219 15.077069 25.781929 15.25 25.889999C 17.23535 27.095522 19.54941 27.646486 21.865 27.465C 21.981512 27.465599 22.093695 27.509226 22.18 27.5875C 22.267809 27.668915 22.318407 27.782764 22.32 27.9025L 22.32 28.707499C 22.318699 29.278002 21.962734 29.787519 21.4275 29.985001C 16.352501 31.8575 12.2925 33.1875 11.33 35.112499C 10.593773 36.608566 10.142743 38.228714 10 39.889999C 9.984427 40.076241 10.047944 40.260437 10.175 40.397499C 10.306701 40.538479 10.489627 40.62048 10.6825 40.625L 26.205 40.625C 26.427525 40.62661 26.615803 40.460922 26.6425 40.240002C 26.780184 38.985504 27.582573 37.902279 28.7425 37.404999ZM 29.25 46.75C 29.25 47.474876 29.837627 48.0625 30.5625 48.0625C 31.287374 48.0625 31.875 47.474876 31.875 46.75L 31.875 42.9175C 31.872665 42.774979 31.945887 42.641853 32.067501 42.567501C 32.186619 42.498726 32.333382 42.498726 32.452499 42.567501L 40.327499 45.3325C 40.519745 45.402004 40.730255 45.402004 40.922501 45.3325L 51.422501 41.639999C 51.768551 41.5144 51.99897 41.185638 51.99897 40.817501C 51.99897 40.449364 51.768551 40.120598 51.422501 39.994999L 40.922501 35.830002C 40.721649 35.74234 40.493351 35.74234 40.2925 35.830002L 29.792501 39.994999C 29.456139 40.13002 29.234838 40.455055 29.2325 40.817501ZM 46.907501 50.110001C 47.257626 49.986305 47.494583 49.658749 47.502502 49.287498L 47.502502 45.524998C 47.49839 45.241657 47.36253 44.976402 47.134998 44.807499C 46.90012 44.642605 46.599316 44.603371 46.330002 44.702499L 40.764999 46.75C 40.674973 46.785141 40.575027 46.785141 40.485001 46.75L 34.919998 44.789997C 34.650684 44.690872 34.349876 44.730106 34.114998 44.895C 33.887466 45.0639 33.751602 45.329155 33.747498 45.612495L 33.747498 49.375C 33.755417 49.746246 33.992374 50.073807 34.342499 50.197498L 38.84 51.789997C 39.975483 52.171482 41.204521 52.171482 42.340004 51.790001Z"></path></g></g></g><g id="g-root-ic_resu_1uuwzwolz2874-fill" data-item-order="-1764" transform="translate(276, 464.8819580078125)"><g id="ic_resu_1uuwzwolz2874-fill" stroke="none" fill="#484848"><g><path d="M 30.440001 52C 30.440823 46.046951 35.266949 41.221489 41.220001 41.221489C 47.173046 41.221489 51.999176 46.046951 52 52ZM 31.665001 33.712502C 29.58703 33.712502 27.9025 32.027973 27.9025 29.950001L 27.9025 24.91C 27.892305 23.362377 28.839497 21.969448 30.282501 21.41L 32.942501 20.342499L 32.942501 10L 20.9725 10L 20.9725 19.66C 20.963074 20.380934 20.380934 20.963074 19.66 20.9725L 10 20.9725L 10 39.575001L 32.942501 39.575001L 32.942501 33.485001C 32.534569 33.639797 32.101292 33.716957 31.665001 33.712502ZM 20.8675 33.59L 14.952499 33.59C 14.227627 33.59 13.64 33.002373 13.64 32.2775C 13.64 31.552626 14.227627 30.965 14.9525 30.965L 20.8675 30.965C 21.592375 30.965 22.18 31.552626 22.18 32.2775C 22.18 33.002373 21.592375 33.59 20.8675 33.59ZM 22.25 28.147499L 14.952499 28.147499C 14.227627 28.147499 13.64 27.559875 13.64 26.834999C 13.64 26.110126 14.227627 25.522499 14.9525 25.522499L 22.25 25.522499C 22.974874 25.522499 23.5625 26.110126 23.5625 26.834999C 23.5625 27.559875 22.974874 28.147499 22.25 28.147499ZM 18.3475 10.7175L 10.7175 18.3475L 18.3475 18.3475L 18.3475 10.7175ZM 42.48 31.875C 41.663334 32.154999 40.776665 32.154999 39.960003 31.875L 35.41 30.264999C 35.373287 30.813396 35.21167 31.34614 34.9375 31.822498C 34.936432 35.29298 37.749516 38.106926 41.219997 38.106926C 44.690479 38.106926 47.503563 35.29298 47.502499 31.822498C 47.516769 31.230957 47.440041 30.640734 47.275002 30.0725ZM 10 10M 51.195 23.895L 41.639999 20.115C 41.37365 19.991358 41.066349 19.991358 40.799999 20.115L 31.245001 23.895C 30.817333 24.069967 30.535101 24.482986 30.5275 24.945L 30.5275 29.949999C 30.5275 30.578222 31.036777 31.0875 31.665001 31.0875C 32.293224 31.0875 32.802498 30.578222 32.802498 29.949999L 32.802498 27.377501C 32.79932 27.188774 32.891422 27.011145 33.047501 26.904999C 33.211658 26.817886 33.40834 26.817886 33.572498 26.904999L 40.835003 29.477501C 41.084114 29.565575 41.355892 29.565575 41.605003 29.477501L 51.142502 26.1C 51.590794 25.941814 51.896378 25.52511 51.912502 25.050001C 51.943779 24.55147 51.655777 24.08786 51.195 23.895Z"></path></g></g></g><g id="g-root-ic_2_zlb93clz98ng-fill" data-item-order="-1764" transform="translate(454, 184.88201904296875)"><g id="ic_2_zlb93clz98ng-fill" stroke="none" fill="#484848"><g><path d="M 23.72175 10.11725C 24.065496 9.961822 24.459503 9.961822 24.803251 10.11725L 35.653252 15.01725C 36.124958 15.231669 36.426369 15.703539 36.422585 16.22168C 36.4188 16.73982 36.110538 17.207239 35.63575 17.414749L 31.4375 19.247L 31.4375 22.470499L 16.737499 22.470499L 16.737499 19.093L 14.725 18.218L 14.725 20.9375C 14.725 21.662374 14.137374 22.25 13.4125 22.25C 12.687627 22.25 12.1 21.662374 12.1 20.9375L 12.1 16.5625C 12.1 16.503 12.1035 16.44525 12.11225 16.387501C 12.035169 15.813169 12.343854 15.256255 12.87175 15.01725L 23.72175 10.11725ZM 16.73925 24.65625L 31.439251 24.65625L 31.439251 25.3125C 31.439251 29.279751 28.261251 32.662498 24.089249 32.662498C 19.929501 32.662498 16.73925 29.470501 16.73925 25.3125L 16.73925 24.65625ZM 11.3125 46.3125C 11.3125 39.172501 17.13825 33.537498 24.0875 33.537498C 26.658644 33.537369 29.169661 34.315201 31.290503 35.768753C 29.952862 36.911163 29.468864 38.766132 30.077822 40.416451C 30.686781 42.066769 32.259666 43.162762 34.018749 43.162502L 34.025749 43.162502C 34.1605 43.162502 34.29525 43.155499 34.426498 43.14325L 33.03175 44.538002C 32.284531 45.263893 31.749638 46.179985 31.484749 47.1875L 12.1875 47.1875C 11.704251 47.1875 11.3125 46.79575 11.3125 46.3125ZM 46.2565 46.3755L 42.774002 42.892998C 42.193596 42.309288 41.404408 41.981083 40.581249 41.981083C 39.758091 41.981083 38.968903 42.309288 38.3885 42.892998L 34.8885 46.392998C 32.888252 48.39325 34.447502 51.5625 37.081249 51.5625L 44.081249 51.5625C 45.446247 51.5625 46.47525 50.691002 46.91975 49.654999C 47.362499 48.622498 47.276752 47.287247 46.2565 46.3755ZM 34.023998 36.950001C 35.135395 36.951557 36.03513 37.853725 36.03368 38.965122C 36.03223 40.076519 35.130146 40.976341 34.018749 40.974998L 34.023998 36.950001ZM 34.015251 40.975002C 32.903778 40.974033 32.003532 40.072224 32.004501 38.960751C 32.005466 37.849277 32.907276 36.949036 34.018749 36.950001L 34.015251 40.975002ZM 47.149002 36.950001C 48.260395 36.951557 49.16013 37.853725 49.15868 38.965122C 49.157227 40.076519 48.255146 40.976341 47.143745 40.974998L 47.149002 36.950001ZM 47.140251 40.975002C 46.028778 40.974033 45.128532 40.072224 45.129501 38.960751C 45.130466 37.849277 46.032276 36.949036 47.143749 36.950001L 47.140251 40.975002ZM 40.586502 34.325001C 41.697895 34.326557 42.59763 35.228725 42.59618 36.340122C 42.594727 37.451523 41.692646 38.351341 40.581245 38.349998M 40.577751 38.350002C 39.466278 38.349033 38.566032 37.447224 38.566998 36.335751C 38.567966 35.224277 39.469776 34.324036 40.581249 34.325001"></path></g></g></g><g id="g-root-tx_skilldev_hssafclz98ui-fill" data-item-order="0" transform="translate(578, 229.88201904296875)"><g id="tx_skilldev_hssafclz98ui-fill" stroke="none" fill="#ba5de5"><g><text style="font: bold 20px Roboto, sans-serif; white-space: pre;" font-weight="bold" font-size="20px" font-family="Roboto, sans-serif"><tspan x="12" y="34" dominant-baseline="ideographic">Skill Development</tspan></text></g></g></g><g id="g-root-tx_develops_24r0olz981v-fill" data-item-order="0" transform="translate(578, 265.88201904296875)"><g id="tx_develops_24r0olz981v-fill" stroke="none" fill="#4f3d58"><g><text style="font: 15px Roboto, sans-serif; white-space: pre;" font-size="15px" font-family="Roboto, sans-serif"><tspan x="12" y="28" dominant-baseline="ideographic">Develops essential soft </tspan><tspan x="12" y="46" dominant-baseline="ideographic">skills</tspan></text></g></g></g><g id="g-root-tx_buildspr_v48ssolz7tvs-fill" data-item-order="0" transform="translate(110, 241.88201904296875)"><g id="tx_buildspr_v48ssolz7tvs-fill" stroke="none" fill="#443e5c"><g><text style="font: 15px Roboto, sans-serif; white-space: pre;" font-size="15px" font-family="Roboto, sans-serif"><tspan x="48.48" y="28" dominant-baseline="ideographic">Builds professional </tspan><tspan x="16.72" y="46" dominant-baseline="ideographic">networks for future jobs</tspan></text></g></g></g><g id="g-root-tx_informed_mg3hl4lz3ls1-fill" data-item-order="0" transform="translate(14, 325.8819580078125)"><g id="tx_informed_mg3hl4lz3ls1-fill" stroke="none" fill="#92bd39"><g><text style="font: bold 20px Roboto, sans-serif; white-space: pre;" font-weight="bold" font-size="20px" font-family="Roboto, sans-serif"><tspan x="16.95" y="34" dominant-baseline="ideographic">Informed Career </tspan><tspan x="91.63" y="58" dominant-baseline="ideographic">Choices</tspan></text></g></g></g><g id="g-root-tx_equipsst_147di2wlz2613-fill" data-item-order="0" transform="translate(398, 577.8819580078125)"><g id="tx_equipsst_147di2wlz2613-fill" stroke="none" fill="#374840"><g><text style="font: 15px Roboto, sans-serif; white-space: pre;" font-size="15px" font-family="Roboto, sans-serif"><tspan x="12" y="28" dominant-baseline="ideographic">Equips students with real-</tspan><tspan x="12" y="46" dominant-baseline="ideographic">world skills</tspan></text></g></g></g><g id="g-root-tx_helpsstu_1hjghjclz3n5u-fill" data-item-order="0" transform="translate(14, 385.8819580078125)"><g id="tx_helpsstu_1hjghjclz3n5u-fill" stroke="none" fill="#424736"><g><text style="font: 15px Roboto, sans-serif; white-space: pre;" font-size="15px" font-family="Roboto, sans-serif"><tspan x="22.91" y="28" dominant-baseline="ideographic">Helps students explore </tspan><tspan x="92.83" y="46" dominant-baseline="ideographic">career paths</tspan></text></g></g></g><g id="g-root-tx_practica_dkghc8lz4zyk-fill" data-item-order="0" transform="translate(494, 373.8819580078125)"><g id="tx_practica_dkghc8lz4zyk-fill" stroke="none" fill="#1eabda"><g><text style="font: bold 20px Roboto, sans-serif; white-space: pre;" font-weight="bold" font-size="20px" font-family="Roboto, sans-serif"><tspan x="12" y="34" dominant-baseline="ideographic">Practical Application </tspan><tspan x="12" y="58" dominant-baseline="ideographic">of Knowledge</tspan></text></g></g></g><g id="g-root-tx_networki_dbpu4olz7u2v-fill" data-item-order="0" transform="translate(110, 181.88201904296875)"><g id="tx_networki_dbpu4olz7u2v-fill" stroke="none" fill="#7f64ea"><g><text style="font: bold 20px Roboto, sans-serif; white-space: pre;" font-weight="bold" font-size="20px" font-family="Roboto, sans-serif"><tspan x="36.41" y="34" dominant-baseline="ideographic">Networking </tspan><tspan x="17" y="58" dominant-baseline="ideographic">Opportunities</tspan></text></g></g></g><g id="g-root-tx_appliest_v2zumglz6ebx-fill" data-item-order="0" transform="translate(494, 433.8819580078125)"><g id="tx_appliest_v2zumglz6ebx-fill" stroke="none" fill="#32444a"><g><text style="font: 15px Roboto, sans-serif; white-space: pre;" font-size="15px" font-family="Roboto, sans-serif"><tspan x="12" y="31" dominant-baseline="ideographic">Applies theoretical </tspan><tspan x="12" y="49" dominant-baseline="ideographic">concepts to real-world </tspan><tspan x="12" y="67" dominant-baseline="ideographic">situations</tspan></text></g></g></g><g id="g-root-tx_unlockin_mcz45klz277x-fill" data-item-order="0" transform="translate(320, 38)"><g id="tx_unlockin_mcz45klz277x-fill" stroke="none" fill="#484848"><g><text style="font: 20px Roboto, sans-serif; white-space: pre;" font-size="20px" font-family="Roboto, sans-serif"><tspan x="12.17" y="34" dominant-baseline="ideographic">Benefits of Wilp</tspan></text></g></g></g><g id="g-root-tx_enhanced_1hgc43slz28lq-fill" data-item-order="0" transform="translate(398, 517.8819580078125)"><g id="tx_enhanced_1hgc43slz28lq-fill" stroke="none" fill="#3cc583"><g><text style="font: bold 20px Roboto, sans-serif; white-space: pre;" font-weight="bold" font-size="20px" font-family="Roboto, sans-serif"><tspan x="12" y="34" dominant-baseline="ideographic">Enhanced </tspan><tspan x="12" y="58" dominant-baseline="ideographic">Employability</tspan></text></g></g></g><g id="g-root-cp_0c_g-0c_1lr5tjclz28ed-stroke" data-item-order="-455102" transform="translate(431.3399658203125, 131.09197998046875)"><g id="cp_0c_g-0c_1lr5tjclz28ed-stroke" fill="none" stroke-linecap="round" stroke-linejoin="round" stroke-miterlimit="4" stroke="#ffffff" stroke-width="2"><g><path d="M 53.71 19.02L 47 29.46L 46.97 29.46L 46.96 29.45L 10 20.44L 16.72 10L 53.71 19.02ZM 114.27 57.98L 107.47 68.48L 88.17 55.97L 47 29.46L 53.71 19.02L 114.27 57.98ZM 137.82 87.91L 131.1 98.35L 131.09 98.35L 107.47 68.48L 114.27 57.98L 137.8 87.88L 137.8 87.89L 137.82 87.91Z"></path></g></g></g><g id="g-root-cp_0b_g-0b_18gbs94lz26tj-stroke" data-item-order="-455098" transform="translate(206.52999877929688, 492.9010009765625)"><g id="cp_0b_g-0b_18gbs94lz26tj-stroke" fill="none" stroke-linecap="round" stroke-linejoin="round" stroke-miterlimit="4" stroke="#ffffff" stroke-width="2"><g><path d="M 131.3 87.61L 62.24 115.22C 54.96 96.99 37.11 84.14 16.29 84.21C 15.48 84.21 14.68 84.23 13.88 84.28L 10 10L 47.02 18.93L 107.67 57.73L 131.3 87.61Z"></path></g></g></g><g id="g-root-cp_0a_g-0a_v4v9vslz28eh-stroke" data-item-order="-455094" transform="translate(210.41000366210938, 110)"><g id="cp_0a_g-0a_v4v9vslz28eh-stroke" fill="none" stroke-linecap="round" stroke-linejoin="round" stroke-miterlimit="4" stroke="#ffffff" stroke-width="2"><g><path d="M 58.36 498.1217L 12.57 516.4217L 10 467.1817C 10.8 467.1317 11.6 467.1117 12.41 467.1117C 33.23 467.0417 51.08 479.8917 58.36 498.1217ZM 358.75 108.9917L 363.7 101.2617C 370.78 90.1917 369.72 75.7817 361.09 65.8617C 338.44 39.8517 308.81 20.8817 275.71 11.2117L 275.64 11.1917C 263.02 7.5017 249.48 12.5817 242.4 23.6517L 237.65 31.0817L 274.65 40.1017L 335.2 79.0617L 358.75 108.9817L 358.75 108.9917Z"></path></g></g></g><g id="g-root-cp_1_g-1_4ikq88lz28ej-stroke" data-item-order="-455090" transform="translate(206.52999877929688, 422.6910400390625)"><g id="cp_1_g-1_4ikq88lz28ej-stroke" fill="none" stroke-linecap="round" stroke-linejoin="round" stroke-miterlimit="4" stroke="#ffffff" stroke-width="2"><g><path d="M 176.22 87.6L 131.3 157.82L 107.67 127.94L 152.59 57.73L 176.22 87.6ZM 91.95 18.93L 47.02 89.14L 10 80.21L 54.92 10L 91.95 18.93ZM 152.59 57.73L 107.67 127.94L 47.02 89.14L 91.95 18.93L 152.59 57.73Z"></path></g></g></g><g id="g-root-cp_2_g-2_1cxe8jslz287h-stroke" data-item-order="-455086" transform="translate(251.45001220703125, 352.48101806640625)"><g id="cp_2_g-2_1cxe8jslz287h-stroke" fill="none" stroke-linecap="round" stroke-linejoin="round" stroke-miterlimit="4" stroke="#ffffff" stroke-width="2"><g><path d="M 91.95 18.93L 47.03 89.14L 10 80.21L 54.92 10L 91.95 18.93ZM 176.22 87.6L 131.3 157.81L 107.67 127.94L 152.6 57.7299L 176.22 87.6ZM 152.6 57.7299L 107.67 127.94L 47.03 89.14L 91.95 18.93L 152.6 57.7299Z"></path></g></g></g><g id="g-root-cp_3_g-3_v6qp54lz27ev-stroke" data-item-order="-455082" transform="translate(296.3699951171875, 282.261962890625)"><g id="cp_3_g-3_v6qp54lz27ev-stroke" fill="none" stroke-linecap="round" stroke-linejoin="round" stroke-miterlimit="4" stroke="#ffffff" stroke-width="2"><g><path d="M 91.95 18.93L 47.03 89.15L 10 80.22L 54.92 10L 54.93 10L 91.95 18.93ZM 176.22 87.61L 131.3 157.82L 107.68 127.95L 152.6 57.74L 176.22 87.61ZM 152.6 57.74L 107.68 127.95L 47.03 89.15L 91.95 18.93L 152.6 57.74Z"></path></g></g></g><g id="g-root-cp_4_g-4_dg35qglz26m9-stroke" data-item-order="-455078" transform="translate(341.29998779296875, 212.052001953125)"><g id="cp_4_g-4_dg35qglz26m9-stroke" fill="none" stroke-linecap="round" stroke-linejoin="round" stroke-miterlimit="4" stroke="#ffffff" stroke-width="2"><g><path d="M 176.21 87.61L 131.29 157.82L 107.67 127.95L 152.59 57.73L 176.21 87.61ZM 91.94 18.93L 47.02 89.14L 10 80.21L 54.92 10L 91.94 18.93ZM 152.59 57.73L 107.67 127.95L 47.02 89.14L 91.94 18.93L 152.59 57.73Z"></path></g></g></g><g id="g-root-cp_5_g-5_1cz9nt4lz277v-stroke" data-item-order="-455074" transform="translate(386.219970703125, 141.531982421875)"><g id="cp_5_g-5_1cz9nt4lz277v-stroke" fill="none" stroke-linecap="round" stroke-linejoin="round" stroke-miterlimit="4" stroke="#ffffff" stroke-width="2"><g><path d="M 176.22 87.91L 131.3 158.12L 107.67 128.25L 152.59 58.04L 176.22 87.91ZM 92.12 19.02L 47.02 89.45L 10 80.52L 55.12 10L 92.12 19.02ZM 152.59 58.04L 107.67 128.25L 47.02 89.45L 92.12 19.02L 152.59 58.04Z"></path></g></g></g><g id="g-root-ic_man_vsuglz6f46-stroke" data-item-order="-1764" transform="translate(364, 324.8819580078125)"></g><g id="g-root-ic_lapt_1lserpklz7sw1-stroke" data-item-order="-1764" transform="translate(410, 254.88201904296875)"></g><g id="g-root-ic_grad_vsuglz51qb-stroke" data-item-order="-1764" transform="translate(320, 394.8819580078125)"></g><g id="g-root-ic_resu_1uuwzwolz2874-stroke" data-item-order="-1764" transform="translate(276, 464.8819580078125)"></g><g id="g-root-ic_2_zlb93clz98ng-stroke" data-item-order="-1764" transform="translate(454, 184.88201904296875)"></g><g id="g-root-tx_skilldev_hssafclz98ui-stroke" data-item-order="0" transform="translate(578, 229.88201904296875)"></g><g id="g-root-tx_develops_24r0olz981v-stroke" data-item-order="0" transform="translate(578, 265.88201904296875)"></g><g id="g-root-tx_buildspr_v48ssolz7tvs-stroke" data-item-order="0" transform="translate(110, 241.88201904296875)"></g><g id="g-root-tx_informed_mg3hl4lz3ls1-stroke" data-item-order="0" transform="translate(14, 325.8819580078125)"></g><g id="g-root-tx_equipsst_147di2wlz2613-stroke" data-item-order="0" transform="translate(398, 577.8819580078125)"></g><g id="g-root-tx_helpsstu_1hjghjclz3n5u-stroke" data-item-order="0" transform="translate(14, 385.8819580078125)"></g><g id="g-root-tx_practica_dkghc8lz4zyk-stroke" data-item-order="0" transform="translate(494, 373.8819580078125)"></g><g id="g-root-tx_networki_dbpu4olz7u2v-stroke" data-item-order="0" transform="translate(110, 181.88201904296875)"></g><g id="g-root-tx_appliest_v2zumglz6ebx-stroke" data-item-order="0" transform="translate(494, 433.8819580078125)"></g><g id="g-root-tx_unlockin_mcz45klz277x-stroke" data-item-order="0" transform="translate(320, 38)"></g><g id="g-root-tx_enhanced_1hgc43slz28lq-stroke" data-item-order="0" transform="translate(398, 517.8819580078125)"></g></g></g></svg>