<?xml version="1.0" encoding="utf-8" standalone="yes"?>
<!DOCTYPE svg PUBLIC "-//W3C//DTD SVG 1.1//EN" "http://www.w3.org/Graphics/SVG/1.1/DTD/svg11.dtd">
<svg width="852" height="444" viewBox="0 0 852 444" style="fill:none;stroke:none;fill-rule:evenodd;clip-rule:evenodd;stroke-linecap:round;stroke-linejoin:round;stroke-miterlimit:1.5;" version="1.1" xmlns="http://www.w3.org/2000/svg" xmlns:xlink="http://www.w3.org/1999/xlink"><style class="text-font-style fontImports" data-font-family="Roboto">@import url('https://fonts.googleapis.com/css2?family=Roboto:wght@400;700&amp;display=block');</style><g id="items" style="isolation: isolate"><g id="blend" style="mix-blend-mode: normal"><g id="g-root-cp_1_g-1_4mbkrcixaw3n-fill" data-item-order="-279782" transform="translate(356.6000061035156, 110)"><g id="cp_1_g-1_4mbkrcixaw3n-fill" stroke="none" fill="#e0cb15"><g><path d="M 50.9 10L 10 94L 91.8 94L 50.9 10ZM 62.4 10L 103.3 94L 199.3 94L 158.4 10L 62.4 10Z"></path></g></g></g><g id="g-root-cp_2_g-2_1qcllg8ixaubp-fill" data-item-order="-279778" transform="translate(208, 194)"><g id="cp_2_g-2_1qcllg8ixaubp-fill" stroke="none" fill="#3cc583"><g><path d="M 240.4 10L 158.6 10L 117.7 94L 281.3 94L 240.4 10ZM 146.9 10L 106 94L 10 94L 50.9 10L 146.9 10Z"></path></g></g></g><g id="g-root-cp_3_g-3_1hgyl7cixav4f-fill" data-item-order="-279774" transform="translate(274.79998779296875, 278)"><g id="cp_3_g-3_1hgyl7cixav4f-fill" stroke="none" fill="#4e88e7"><g><path d="M 214.5 10L 50.9 10L 10 94L 255.4 94L 214.5 10ZM 226.2 10L 267.1 94L 363.1 94L 322.2 10L 226.2 10Z"></path></g></g></g><g id="g-root-tx_wilpprog_940i54ixaubt-fill" data-item-order="0" transform="translate(302, 38)"><g id="tx_wilpprog_940i54ixaubt-fill" stroke="none" fill="#484848"><g><text style="font: 20px Roboto, sans-serif; white-space: pre;" font-size="20px" font-family="Roboto, sans-serif"><tspan x="16.7" y="34" dominant-baseline="ideographic">WILP Program Structure</tspan></text></g></g></g><g id="g-root-tx_mentorsh_1hbysigixc9vk-fill" data-item-order="0" transform="translate(566, 104)"><g id="tx_mentorsh_1hbysigixc9vk-fill" stroke="none" fill="#e0cb15"><g><text style="font: bold 20px Roboto, sans-serif; white-space: pre;" font-weight="bold" font-size="20px" font-family="Roboto, sans-serif"><tspan x="12" y="34" dominant-baseline="ideographic">Mentorship</tspan></text></g></g></g><g id="g-root-tx_1_1lt18t4ixcb9e-fill" data-item-order="0" transform="translate(464, 140)"><g id="tx_1_1lt18t4ixcb9e-fill" stroke="none" fill="#ffffff"><g><text style="font: bold 30px Roboto, sans-serif; white-space: pre;" font-weight="bold" font-size="30px" font-family="Roboto, sans-serif"><tspan x="13.39" y="46" dominant-baseline="ideographic">1</tspan></text></g></g></g><g id="g-root-tx_guidance_hu18m0ixcao9-fill" data-item-order="0" transform="translate(566, 140)"><g id="tx_guidance_hu18m0ixcao9-fill" stroke="none" fill="#46432d"><g><text style="font: 15px Roboto, sans-serif; white-space: pre;" font-size="15px" font-family="Roboto, sans-serif"><tspan x="12" y="31" dominant-baseline="ideographic">Guidance from </tspan><tspan x="12" y="49" dominant-baseline="ideographic">experienced </tspan><tspan x="12" y="67" dominant-baseline="ideographic">professionals</tspan></text></g></g></g><g id="g-root-tx_workexpe_v3mbq0ixca31-fill" data-item-order="0" transform="translate(74, 176)"><g id="tx_workexpe_v3mbq0ixca31-fill" stroke="none" fill="#3cc583"><g><text style="font: bold 20px Roboto, sans-serif; white-space: pre;" font-weight="bold" font-size="20px" font-family="Roboto, sans-serif"><tspan x="69.5" y="34" dominant-baseline="ideographic">Work </tspan><tspan x="16.67" y="58" dominant-baseline="ideographic">Experience</tspan></text></g></g></g><g id="g-root-tx_internsh_dcysbcixc9ae-fill" data-item-order="0" transform="translate(38, 236)"><g id="tx_internsh_dcysbcixc9ae-fill" stroke="none" fill="#374840"><g><text style="font: 15px Roboto, sans-serif; white-space: pre;" font-size="15px" font-family="Roboto, sans-serif"><tspan x="18.98" y="31" dominant-baseline="ideographic">Internships or co-op </tspan><tspan x="51.34" y="49" dominant-baseline="ideographic">placements for </tspan><tspan x="56.81" y="67" dominant-baseline="ideographic">practical skills</tspan></text></g></g></g><g id="g-root-tx_2_1q6zbo8ixcbgv-fill" data-item-order="0" transform="translate(260, 224)"><g id="tx_2_1q6zbo8ixcbgv-fill" stroke="none" fill="#ffffff"><g><text style="font: bold 30px Roboto, sans-serif; white-space: pre;" font-weight="bold" font-size="30px" font-family="Roboto, sans-serif"><tspan x="13.39" y="46" dominant-baseline="ideographic">2</tspan></text></g></g></g><g id="g-root-tx_coursewo_1hiu0goixau4q-fill" data-item-order="0" transform="translate(650, 272)"><g id="tx_coursewo_1hiu0goixau4q-fill" stroke="none" fill="#4e88e7"><g><text style="font: bold 20px Roboto, sans-serif; white-space: pre;" font-weight="bold" font-size="20px" font-family="Roboto, sans-serif"><tspan x="12" y="34" dominant-baseline="ideographic">Coursework</tspan></text></g></g></g><g id="g-root-tx_3_dl2yfsixavpo-fill" data-item-order="0" transform="translate(548, 308)"><g id="tx_3_dl2yfsixavpo-fill" stroke="none" fill="#ffffff"><g><text style="font: bold 30px Roboto, sans-serif; white-space: pre;" font-weight="bold" font-size="30px" font-family="Roboto, sans-serif"><tspan x="13.39" y="46" dominant-baseline="ideographic">3</tspan></text></g></g></g><g id="g-root-tx_academic_zrjzywixawhv-fill" data-item-order="0" transform="translate(650, 308)"><g id="tx_academic_zrjzywixawhv-fill" stroke="none" fill="#3a4455"><g><text style="font: 15px Roboto, sans-serif; white-space: pre;" font-size="15px" font-family="Roboto, sans-serif"><tspan x="12" y="31" dominant-baseline="ideographic">Academic courses </tspan><tspan x="12" y="49" dominant-baseline="ideographic">complementing </tspan><tspan x="12" y="67" dominant-baseline="ideographic">work experience</tspan></text></g></g></g><g id="g-root-cp_1_g-1_4mbkrcixaw3n-stroke" data-item-order="-279782" transform="translate(356.6000061035156, 110)"><g id="cp_1_g-1_4mbkrcixaw3n-stroke" fill="none" stroke-linecap="round" stroke-linejoin="round" stroke-miterlimit="4" stroke="#ffffff" stroke-width="2"><g><path d="M 50.9 10L 10 94L 91.8 94L 50.9 10ZM 62.4 10L 103.3 94L 199.3 94L 158.4 10L 62.4 10Z"></path></g></g></g><g id="g-root-cp_2_g-2_1qcllg8ixaubp-stroke" data-item-order="-279778" transform="translate(208, 194)"><g id="cp_2_g-2_1qcllg8ixaubp-stroke" fill="none" stroke-linecap="round" stroke-linejoin="round" stroke-miterlimit="4" stroke="#ffffff" stroke-width="2"><g><path d="M 240.4 10L 158.6 10L 117.7 94L 281.3 94L 240.4 10ZM 146.9 10L 106 94L 10 94L 50.9 10L 146.9 10Z"></path></g></g></g><g id="g-root-cp_3_g-3_1hgyl7cixav4f-stroke" data-item-order="-279774" transform="translate(274.79998779296875, 278)"><g id="cp_3_g-3_1hgyl7cixav4f-stroke" fill="none" stroke-linecap="round" stroke-linejoin="round" stroke-miterlimit="4" stroke="#ffffff" stroke-width="2"><g><path d="M 214.5 10L 50.9 10L 10 94L 255.4 94L 214.5 10ZM 226.2 10L 267.1 94L 363.1 94L 322.2 10L 226.2 10Z"></path></g></g></g><g id="g-root-tx_wilpprog_940i54ixaubt-stroke" data-item-order="0" transform="translate(302, 38)"></g><g id="g-root-tx_mentorsh_1hbysigixc9vk-stroke" data-item-order="0" transform="translate(566, 104)"></g><g id="g-root-tx_1_1lt18t4ixcb9e-stroke" data-item-order="0" transform="translate(464, 140)"></g><g id="g-root-tx_guidance_hu18m0ixcao9-stroke" data-item-order="0" transform="translate(566, 140)"></g><g id="g-root-tx_workexpe_v3mbq0ixca31-stroke" data-item-order="0" transform="translate(74, 176)"></g><g id="g-root-tx_internsh_dcysbcixc9ae-stroke" data-item-order="0" transform="translate(38, 236)"></g><g id="g-root-tx_2_1q6zbo8ixcbgv-stroke" data-item-order="0" transform="translate(260, 224)"></g><g id="g-root-tx_coursewo_1hiu0goixau4q-stroke" data-item-order="0" transform="translate(650, 272)"></g><g id="g-root-tx_3_dl2yfsixavpo-stroke" data-item-order="0" transform="translate(548, 308)"></g><g id="g-root-tx_academic_zrjzywixawhv-stroke" data-item-order="0" transform="translate(650, 308)"></g></g></g></svg>